<?xml version="1.0" standalone="no"?>
<!DOCTYPE svg PUBLIC "-//W3C//DTD SVG 20010904//EN"
 "http://www.w3.org/TR/2001/REC-SVG-20010904/DTD/svg10.dtd">
<svg version="1.0" xmlns="http://www.w3.org/2000/svg"
 width="1371.000000pt" height="1390.000000pt" viewBox="0 0 1371.000000 1390.000000"
 preserveAspectRatio="xMidYMid meet">

<g transform="translate(0.000000,1390.000000) scale(0.100000,-0.100000)"
fill="#000000" stroke="none">
<path d="M6358 13300 c-1084 -61 -2072 -418 -2933 -1059 -493 -367 -947 -851
-1291 -1376 -396 -604 -674 -1319 -789 -2028 -57 -354 -69 -508 -69 -872 0
-355 13 -551 54 -830 195 -1345 929 -2592 2020 -3436 837 -648 1828 -1028
2889 -1109 172 -13 606 -13 781 0 1301 97 2492 643 3412 1564 735 736 1234
1652 1453 2667 33 157 81 497 96 694 20 242 17 736 -4 925 -43 383 -94 659
-168 924 -185 657 -470 1243 -860 1767 -884 1187 -2192 1953 -3644 2134 -287
35 -682 50 -947 35z m252 -260 c0 -6 -27 -47 -60 -92 -33 -45 -56 -86 -52 -92
4 -7 35 -53 70 -103 34 -51 62 -95 62 -98 0 -3 -22 -5 -49 -5 l-49 0 -43 67
c-24 36 -47 70 -50 75 -3 5 -13 6 -22 2 -14 -5 -17 -20 -17 -81 l0 -74 -42 3
-43 3 -8 185 c-4 102 -5 191 -2 198 2 7 22 12 45 12 l40 0 0 -64 c0 -105 5
-107 71 -17 37 50 67 81 81 84 43 8 68 7 68 -3z m298 -6 c51 -7 52 -7 52 -40
l0 -34 -70 0 c-60 0 -70 -3 -70 -17 0 -10 -3 -28 -6 -40 -6 -22 -4 -23 59 -23
36 0 68 -3 70 -7 3 -5 3 -21 0 -38 l-4 -30 -65 3 -64 4 0 -45 c0 -42 2 -45 31
-51 17 -3 49 -6 70 -6 38 0 39 -1 39 -35 l0 -35 -115 0 -115 0 0 103 c0 56 3
146 7 200 l6 97 61 0 c34 0 85 -3 114 -6z m335 -25 c107 -12 107 -12 107 -39
0 -20 -27 -58 -104 -146 -65 -74 -100 -121 -93 -125 7 -4 47 -10 90 -14 l78
-7 -3 -36 c-2 -21 -7 -37 -13 -37 -5 0 -72 6 -147 14 l-138 14 0 27 c0 20 27
58 105 146 58 66 105 122 105 125 0 4 -36 10 -80 13 -44 4 -82 12 -86 17 -3 5
-2 23 1 40 6 28 10 30 38 26 18 -3 80 -11 140 -18z m-1053 -14 c0 -14 -9 -30
-20 -37 -23 -15 -24 -24 -8 -158 10 -92 13 -102 35 -111 12 -4 23 -13 23 -18
0 -5 3 -16 6 -24 6 -17 -13 -22 -118 -33 l-68 -6 0 26 c0 15 8 31 20 38 23 15
24 24 8 159 -9 86 -14 102 -30 107 -19 5 -44 50 -34 60 6 5 104 19 154 21 28
1 32 -2 32 -24z m-313 -57 c38 -38 42 -102 10 -148 l-24 -35 65 -67 c36 -37
63 -70 60 -74 -4 -3 -24 -10 -45 -14 -38 -9 -38 -9 -96 55 -33 37 -67 65 -78
65 -22 0 -22 4 -8 -78 13 -72 8 -82 -47 -82 l-30 0 -33 191 c-18 104 -32 192
-30 194 11 9 122 23 172 21 47 -2 63 -7 84 -28z m1765 6 c10 -3 20 -15 23 -27
13 -62 56 -379 52 -384 -3 -3 -24 -2 -46 2 -40 7 -41 8 -47 55 -7 53 -7 52
-96 65 l-47 7 -21 -41 c-20 -40 -22 -42 -58 -35 -20 3 -40 9 -44 13 -4 4 38
86 95 184 l102 177 35 -5 c19 -4 43 -8 52 -11z m-3321 -494 l21 -70 74 0 c41
0 74 -4 74 -10 0 -5 -25 -26 -55 -47 -30 -21 -54 -43 -55 -49 0 -6 9 -37 20
-69 11 -32 20 -62 20 -67 0 -5 -29 11 -64 36 l-63 46 -59 -44 c-32 -25 -60
-43 -62 -41 -2 2 6 34 17 71 23 77 23 76 -49 125 -27 19 -50 37 -50 42 0 4 35
7 78 7 l78 0 23 70 c12 39 24 70 26 70 3 0 14 -31 26 -70z m4690 -110 l23 -69
80 -3 81 -3 -62 -44 c-35 -24 -63 -49 -63 -56 0 -6 9 -38 20 -70 11 -32 18
-60 16 -63 -3 -2 -32 15 -65 38 l-59 42 -57 -42 c-31 -23 -59 -39 -62 -37 -3
3 5 36 17 72 12 36 20 68 19 69 -2 2 -31 23 -64 47 l-60 44 81 3 80 3 11 42
c15 54 31 97 37 97 3 0 15 -31 27 -70z m-1936 -145 c1047 -112 2000 -590 2702
-1354 70 -77 132 -135 143 -136 10 -1 17 2 14 7 -3 4 2 8 11 8 9 0 30 7 47 16
16 9 27 11 23 5 -3 -6 11 -1 31 11 21 12 34 16 30 9 -7 -10 -4 -10 12 0 18 11
24 10 40 -4 35 -32 224 -292 314 -432 77 -122 286 -522 302 -580 5 -17 -1 -23
-29 -34 -19 -6 -37 -12 -40 -11 -3 0 -19 -7 -35 -15 -16 -8 -32 -15 -35 -15
-15 0 -21 -1 -34 -9 -12 -8 -4 -35 44 -158 l58 -149 81 28 c44 15 88 32 98 38
14 8 20 -2 42 -63 75 -211 133 -446 171 -695 38 -250 40 -291 18 -298 -10 -3
-31 -11 -46 -19 -20 -10 -26 -11 -21 -2 6 9 4 9 -8 0 -8 -7 -18 -10 -21 -6 -4
3 -7 1 -7 -6 0 -7 -4 -10 -9 -6 -5 3 -12 1 -16 -5 -4 -6 -10 -8 -14 -5 -5 2
-16 -1 -25 -8 -16 -12 -17 -31 -10 -220 6 -172 9 -205 20 -196 8 6 14 9 14 5
0 -3 17 0 38 8 20 8 46 17 57 22 11 4 25 8 31 9 6 2 21 6 33 10 21 6 21 4 21
-106 0 -241 -35 -557 -91 -814 -44 -199 -42 -195 -130 -225 -41 -13 -76 -24
-79 -25 -3 0 -9 -3 -15 -6 -5 -4 -22 -9 -36 -12 -24 -6 -32 -23 -88 -188 -34
-99 -88 -241 -120 -315 -32 -74 -55 -137 -50 -140 5 -3 8 0 7 8 -2 8 6 13 21
13 14 0 26 7 29 15 3 13 2 13 -8 0 -8 -10 -10 -11 -8 -2 2 8 7 13 12 12 5 -1
13 4 18 12 6 9 7 5 3 -12 -4 -17 -3 -21 3 -12 5 8 13 13 18 12 4 -1 11 7 15
17 7 17 8 17 9 -2 2 -17 3 -16 10 5 7 22 8 22 10 5 1 -11 1 -24 0 -30 -1 -5 2
-6 6 -2 5 4 9 18 9 30 0 12 6 21 13 19 6 -1 12 3 12 8 0 6 6 5 14 -2 8 -7 11
-17 8 -22 -3 -5 0 -6 7 -2 7 5 16 18 21 30 4 13 15 23 23 23 11 0 12 -7 4 -33
-6 -18 -14 -31 -18 -29 -4 3 -5 -3 -3 -12 5 -21 -149 -338 -232 -481 -597
-1015 -1558 -1756 -2680 -2066 -1021 -282 -2112 -195 -3063 244 -192 89 -344
174 -347 194 -1 10 -6 21 -10 24 -4 4 -4 -1 -1 -11 4 -9 2 -17 -3 -17 -11 0
-13 11 -4 34 5 13 9 12 26 -7 19 -22 19 -22 9 0 -9 17 -8 21 4 19 8 -1 18 -6
22 -11 4 -4 2 -5 -6 0 -10 6 -12 4 -7 -4 5 -8 12 -9 19 -2 7 5 16 9 22 9 5 0
11 6 13 14 2 9 0 8 -7 -2 -10 -13 -11 -13 -11 0 0 13 -1 13 -11 0 -9 -13 -10
-13 -6 0 2 8 12 15 23 15 10 -1 23 4 27 10 5 5 6 -1 2 -15 l-6 -25 15 25 c8
14 18 24 23 23 4 -1 14 3 21 9 6 6 12 7 12 3 0 -4 6 -2 14 4 11 10 16 9 24 -5
8 -15 9 -15 15 0 4 10 3 15 -3 11 -6 -3 -10 -2 -10 3 0 5 -49 37 -108 70 -60
33 -180 108 -267 167 l-159 105 -119 -39 -120 -40 -41 31 c-150 116 -345 298
-479 446 -120 132 -266 312 -267 327 0 9 170 68 196 68 7 0 -15 37 -48 81 -33
45 -89 124 -126 177 -52 75 -70 95 -82 88 -53 -29 -114 -49 -164 -52 -27 -2
-34 6 -93 103 -77 126 -227 428 -278 560 -47 119 -106 292 -101 297 1 2 45 18
97 35 52 17 95 32 96 32 1 1 -13 53 -32 116 -18 63 -38 134 -44 157 l-12 43
-34 -15 c-19 -7 -35 -12 -35 -9 0 2 -13 -2 -30 -11 -16 -8 -33 -16 -37 -16 -5
-1 -18 -5 -31 -10 -13 -5 -25 -9 -27 -9 -7 0 -24 67 -54 215 -26 121 -40 210
-66 415 -3 25 -8 167 -12 315 -5 254 -5 271 13 285 16 13 17 13 9 0 -8 -13 -7
-13 9 0 17 13 31 18 66 24 9 1 22 6 30 11 8 5 18 10 23 11 4 1 8 2 10 4 1 1
10 3 20 5 31 6 31 6 42 145 16 225 55 459 116 700 378 1508 1558 2698 3064
3090 250 65 535 112 796 130 167 12 551 4 724 -15z m3127 -702 c25 -27 51 -58
57 -70 13 -26 14 -83 2 -116 -15 -40 -77 -95 -121 -108 -55 -17 -112 6 -175
72 l-50 51 113 109 c62 60 116 109 120 109 4 0 28 -21 54 -47z m304 -340 c16
-23 12 -43 -9 -43 -7 1 -30 23 -52 50 l-39 48 -32 -26 c-18 -15 -33 -31 -33
-36 -1 -5 15 -26 34 -47 38 -43 41 -51 22 -67 -9 -8 -23 2 -53 38 l-41 49 -42
-35 -41 -36 45 -51 c40 -46 43 -53 29 -67 -16 -16 -17 -16 -104 92 l-30 36
122 106 123 106 43 -48 c24 -26 50 -57 58 -69z m124 -163 c39 -20 90 -90 90
-123 0 -30 -37 -20 -48 13 -15 43 -59 80 -94 80 -75 0 -148 -65 -148 -132 0
-34 7 -47 39 -79 32 -33 36 -41 24 -51 -20 -17 -41 -2 -81 58 -29 42 -33 55
-29 92 6 54 47 108 107 139 53 28 89 29 140 3z m212 -282 c35 -54 44 -75 36
-85 -16 -20 -21 -17 -53 34 -16 25 -33 50 -36 55 -7 11 -79 -29 -79 -44 0 -5
14 -30 31 -55 28 -40 30 -47 16 -60 -13 -14 -19 -9 -51 41 l-36 57 -45 -31
-45 -31 37 -55 c32 -49 35 -57 21 -70 -13 -13 -20 -6 -66 63 l-51 77 132 88
c73 48 134 88 137 88 3 0 26 -33 52 -72z m-8404 49 c9 -10 5 -23 -14 -51 -14
-21 -22 -41 -18 -45 5 -4 57 -38 117 -75 59 -38 107 -75 107 -82 0 -32 -33
-22 -131 41 -56 37 -108 69 -115 72 -7 2 -25 -14 -40 -37 -24 -36 -29 -39 -42
-26 -13 13 -7 26 49 115 35 56 67 101 70 101 4 0 11 -6 17 -13z m8528 -252 c4
-18 -11 -56 -60 -151 -36 -69 -66 -127 -66 -129 0 -2 47 24 105 58 96 55 107
59 122 45 16 -17 32 -6 -198 -139 -39 -22 -72 -39 -73 -37 -26 32 -23 44 46
176 49 93 65 131 52 124 -11 -6 -59 -33 -108 -62 -80 -46 -91 -49 -105 -36 -8
9 -13 17 -10 19 12 11 275 157 281 157 4 0 10 -11 14 -25z m-8697 -14 c11 -7
8 -19 -18 -64 -17 -30 -31 -57 -31 -60 0 -6 64 -47 73 -47 3 0 19 25 36 55 22
38 35 53 46 49 21 -8 19 -22 -10 -69 -14 -22 -25 -46 -25 -52 0 -10 68 -53 84
-53 2 0 19 25 36 55 17 30 33 55 35 55 2 0 11 -3 19 -6 14 -5 9 -19 -26 -85
-24 -43 -47 -79 -51 -79 -10 0 -258 137 -270 149 -8 8 71 161 82 161 4 0 12
-4 20 -9z m-130 -265 c9 -10 7 -16 -5 -26 -44 -38 -54 -112 -16 -122 23 -6 44
5 96 49 49 41 95 44 131 8 35 -34 33 -86 -5 -152 -32 -56 -36 -59 -60 -43 -12
8 -13 13 -2 27 55 78 64 107 40 131 -22 22 -56 13 -103 -28 -54 -46 -97 -52
-139 -19 -41 32 -31 111 22 172 18 21 26 21 41 3z m9032 -101 c27 -58 49 -110
49 -114 0 -5 -7 -11 -15 -15 -10 -4 -22 8 -37 38 l-23 43 -125 -59 c-117 -55
-125 -58 -138 -41 -12 16 -2 23 112 78 69 33 125 65 125 72 1 7 -7 28 -16 48
-15 31 -15 37 -3 45 8 6 16 10 18 10 2 0 26 -47 53 -105z m-9175 -210 c-32
-46 -33 -69 -5 -89 27 -19 44 -12 101 41 68 62 128 56 158 -16 14 -34 3 -81
-32 -138 -21 -35 -25 -37 -47 -24 -11 7 -8 17 13 53 28 48 33 87 14 106 -22
22 -50 12 -99 -33 -58 -54 -104 -61 -144 -20 -39 38 -29 109 23 168 13 15 18
16 30 4 11 -12 10 -20 -12 -52z m9294 -56 c30 -79 29 -118 -5 -146 -31 -27
-90 -31 -115 -8 -15 13 -21 9 -64 -50 -26 -36 -49 -65 -51 -65 -3 0 -9 9 -15
20 -9 17 -4 30 35 79 48 63 51 72 35 101 -10 18 -12 18 -66 -6 -58 -25 -74
-24 -74 4 0 12 38 33 138 74 75 31 142 57 148 57 6 1 22 -26 34 -60z m-9109
-248 c-10 -18 -50 -31 -95 -31 -18 0 -26 -10 -40 -57 l-18 -56 40 -34 c29 -24
39 -38 35 -53 -3 -11 -8 -20 -12 -20 -3 0 -62 48 -131 106 -150 128 -158 146
-65 155 33 3 113 6 178 7 112 2 117 1 108 -17z m9231 -67 c25 -16 -3 -50 -123
-149 -101 -83 -133 -105 -140 -94 -13 22 -12 25 31 62 l40 34 -18 54 c-20 57
-33 66 -98 68 -23 1 -33 7 -37 22 l-6 22 172 -8 c95 -4 175 -9 179 -11z m76
-266 c-3 -19 -19 -26 -134 -57 l-132 -35 18 -65 c14 -49 16 -68 7 -73 -7 -4
-16 -6 -21 -5 -10 3 -58 169 -51 176 7 6 277 79 298 80 13 1 18 -5 15 -21z
m-9460 -87 c10 -6 9 -25 -9 -94 -12 -48 -24 -87 -28 -87 -3 0 -73 18 -156 39
-132 33 -150 40 -147 57 2 10 5 20 7 22 1 2 64 -12 138 -31 l135 -34 17 68
c18 71 20 75 43 60z m9531 -181 c6 -28 11 -55 11 -60 0 -16 -22 -11 -35 7 -12
16 -19 15 -116 -6 -141 -30 -139 -30 -139 -52 0 -10 -6 -19 -14 -19 -12 0 -36
73 -36 110 0 16 27 11 34 -6 7 -18 17 -17 169 18 72 16 87 23 87 39 0 10 6 19
14 19 9 0 18 -19 25 -50z m-9579 -84 c0 -20 -20 -33 -67 -41 -46 -7 -49 -13
-58 -82 l-6 -48 44 -28 c35 -21 44 -32 40 -47 -3 -11 -7 -20 -9 -20 -13 0
-287 177 -291 188 -10 25 16 35 159 63 168 32 188 34 188 15z m9581 -86 c29
-16 49 -64 49 -120 0 -43 -3 -50 -20 -50 -17 0 -20 7 -20 46 0 57 -14 84 -44
84 -31 0 -41 -14 -60 -85 -9 -35 -24 -67 -37 -77 -24 -20 -70 -23 -100 -8 -57
31 -77 190 -24 190 12 0 15 -14 15 -58 0 -71 15 -95 55 -90 26 3 32 10 44 48
27 88 34 101 60 115 31 17 56 19 82 5z m-9921 -199 l-6 -49 90 -11 c50 -6 112
-14 139 -18 42 -5 47 -8 47 -31 0 -23 -3 -24 -37 -19 -245 37 -253 36 -253
-31 0 -29 -3 -33 -22 -30 -13 2 -23 5 -22 8 0 3 7 56 14 118 12 105 14 112 35
112 20 0 21 -3 15 -49z m10004 -133 c4 -29 9 -70 12 -91 6 -36 4 -38 -17 -35
-18 2 -25 10 -27 33 -8 94 -9 96 -55 93 l-42 -3 3 -67 c4 -63 2 -68 -16 -68
-18 0 -21 9 -27 65 l-7 65 -52 -6 c-28 -4 -52 -8 -53 -9 -2 -1 1 -31 5 -68 8
-65 8 -67 -13 -67 -20 0 -23 7 -31 90 l-9 89 50 6 c27 3 79 10 115 14 36 5 86
9 112 10 l46 1 6 -52z m-10044 -137 c0 -17 10 -20 88 -26 48 -3 104 -8 124
-11 30 -5 39 -2 48 15 6 12 15 21 20 21 12 0 13 -117 2 -124 -11 -6 -27 5 -34
25 -5 13 -29 18 -124 24 -102 6 -119 5 -129 -9 -24 -32 -38 -19 -31 30 3 26 6
53 6 60 0 8 7 14 15 14 8 0 15 -9 15 -19z m10070 -189 c0 -130 -48 -185 -160
-185 -107 0 -154 51 -166 180 l-7 72 59 4 c33 2 107 4 167 5 l107 2 0 -78z
m-10070 -42 c-5 -10 -10 -40 -10 -67 0 -51 18 -82 57 -102 28 -14 105 -14 137
0 33 15 58 70 54 117 -3 37 -4 37 -50 40 l-48 3 0 -35 c0 -29 -4 -36 -20 -36
-18 0 -20 7 -20 60 l0 60 79 0 c49 0 83 -4 87 -11 4 -7 9 -41 11 -78 5 -75
-13 -120 -60 -155 -41 -30 -163 -30 -204 0 -46 34 -66 79 -66 144 1 73 16 104
44 90 15 -9 17 -15 9 -30z m276 -323 c15 -60 -14 -141 -31 -88 -6 19 -14 21
-78 21 -120 0 -179 -10 -185 -32 -10 -38 -27 -10 -30 50 -2 49 0 62 11 62 8 0
17 -9 20 -20 6 -23 31 -25 174 -14 68 6 82 10 86 25 7 26 25 24 33 -4z m9654
-180 l135 -12 -3 -69 c-6 -123 -54 -178 -155 -178 -115 0 -167 57 -167 185 0
40 3 77 7 80 8 8 15 8 183 -6z m-9699 -28 c17 -12 38 -37 46 -56 17 -41 30
-163 17 -163 -5 0 -76 -7 -159 -15 -82 -7 -152 -11 -155 -9 -2 3 -6 39 -8 80
-6 109 16 151 95 180 50 19 125 11 164 -17z m9516 -308 c4 -15 21 -21 96 -30
51 -7 107 -15 125 -18 25 -4 32 -2 32 11 0 9 8 16 20 16 16 0 19 -5 16 -22 -3
-13 -8 -40 -11 -60 -6 -41 -24 -50 -32 -18 -6 22 -13 25 -128 40 -44 6 -90 13
-102 15 -15 4 -23 -1 -28 -15 -3 -11 -13 -20 -22 -20 -13 0 -15 8 -9 46 3 26
6 53 6 60 0 21 31 17 37 -5z m-9461 -187 c43 -21 69 -63 85 -142 11 -50 11
-65 1 -71 -14 -8 -303 -64 -307 -59 -2 2 -9 38 -16 80 -11 69 -11 80 6 117 26
59 78 88 158 90 22 1 54 -6 73 -15z m9629 -34 c66 -41 86 -128 50 -217 -18
-45 -22 -48 -44 -34 -12 8 -12 14 2 44 22 45 22 106 1 136 -34 47 -137 67
-183 35 -26 -19 -51 -71 -51 -108 0 -20 6 -27 28 -32 15 -3 35 -8 45 -11 12
-3 17 1 17 16 0 30 11 51 25 51 23 0 26 -16 14 -69 -12 -55 -12 -55 -79 -41
-103 23 -93 13 -88 90 9 123 63 175 170 167 35 -3 72 -14 93 -27z m-9486 -356
c12 -48 19 -90 14 -94 -16 -13 -296 -81 -304 -73 -4 4 -15 37 -24 73 -9 36
-18 73 -21 83 -5 15 -1 18 17 15 18 -2 26 -14 39 -61 8 -32 20 -58 25 -58 6 1
25 4 43 7 37 7 39 18 18 87 -15 49 -13 57 14 57 13 0 21 -15 30 -60 7 -33 17
-60 22 -60 5 0 29 5 54 11 34 9 43 15 40 28 -25 82 -28 113 -15 122 8 5 16 9
19 9 4 0 16 -39 29 -86z m9221 56 c0 -14 10 -22 38 -29 190 -50 197 -51 208
-36 15 20 34 19 34 -1 0 -8 -5 -35 -11 -60 -12 -47 -35 -59 -41 -22 -3 20 -17
26 -121 53 -110 28 -119 29 -131 13 -7 -9 -17 -13 -24 -9 -17 10 13 111 33
111 8 0 15 -9 15 -20z m232 -255 c-7 -41 -64 -215 -70 -215 -27 1 -32 18 -18
62 l13 45 -130 39 c-71 21 -132 45 -135 52 -13 34 18 33 139 -3 151 -46 142
-44 147 -20 10 47 22 66 40 63 11 -2 16 -11 14 -23z m-9382 -50 c11 -19 23
-56 27 -84 5 -47 4 -51 -16 -51 -15 0 -21 6 -21 23 0 77 -41 129 -85 109 -20
-9 -24 -21 -30 -77 -8 -75 -30 -110 -76 -120 -55 -12 -101 38 -115 124 -6 39
-5 41 20 41 23 0 26 -4 26 -38 0 -44 23 -82 50 -82 27 0 50 38 50 83 0 61 23
105 62 115 45 12 83 -3 108 -43z m9140 -199 c168 -150 168 -150 -57 -154 -104
-1 -173 1 -173 7 0 32 14 41 65 41 l52 0 21 53 20 52 -39 41 c-28 28 -38 46
-33 58 3 9 10 16 14 14 5 -2 63 -52 130 -112z m-9065 -13 c27 -63 29 -83 11
-83 -9 0 -19 6 -22 14 -4 10 -31 4 -123 -31 -99 -37 -117 -48 -117 -65 2 -43
-23 -28 -43 27 -12 31 -21 58 -21 60 0 12 30 4 37 -10 7 -12 26 -8 123 29 63
24 116 50 118 58 13 49 17 49 37 1z m8552 -48 c0 -8 -4 -12 -9 -9 -5 3 -6 10
-3 15 9 13 12 11 12 -6z m-8472 -161 c19 -42 35 -82 35 -88 0 -6 -64 -39 -142
-73 -127 -55 -144 -60 -155 -46 -7 9 -10 19 -8 23 2 4 61 31 130 60 72 30 124
58 121 64 -2 6 -15 35 -27 64 -20 46 -21 54 -9 62 8 6 16 10 18 10 1 0 18 -34
37 -76z m8872 -56 c125 -55 142 -65 136 -83 -3 -11 -6 -21 -8 -22 -1 -2 -57
22 -124 52 -68 30 -126 55 -130 55 -5 0 -20 -27 -35 -60 -28 -61 -32 -65 -54
-52 -9 6 -3 28 25 90 21 45 40 82 43 82 3 0 69 -28 147 -62z m-8816 -175 c-37
-45 -37 -49 -9 -108 l22 -46 52 7 c46 5 53 4 63 -15 10 -18 8 -21 -11 -25 -20
-4 -284 -26 -315 -26 -6 0 -15 9 -18 20 -5 17 17 46 111 147 106 113 119 123
127 105 8 -16 3 -29 -22 -59z m8615 -210 c53 -65 103 -125 111 -134 10 -12 10
-19 0 -32 -11 -16 -21 -16 -162 3 -207 29 -197 26 -183 50 11 16 22 19 68 17
l54 -2 27 49 27 50 -33 40 c-26 32 -31 45 -24 59 6 9 12 17 13 17 2 0 48 -53
102 -117z m-8469 -103 c-33 -60 -36 -73 -26 -92 6 -13 13 -24 14 -26 1 -2 26
11 54 28 67 39 71 39 75 0 1 -8 -46 -38 -225 -142 l-45 -27 -37 68 c-20 38
-37 78 -37 90 0 35 52 81 92 81 18 0 40 -4 48 -10 11 -7 23 6 53 61 37 65 41
70 56 55 15 -15 13 -22 -22 -86z m8232 -83 c8 -11 5 -19 -14 -37 -37 -35 -58
-86 -45 -110 16 -29 54 -25 107 12 52 35 89 39 127 15 51 -34 47 -94 -11 -158
-33 -36 -38 -39 -52 -25 -14 14 -12 19 16 48 40 44 47 67 27 89 -24 26 -37 24
-97 -16 -29 -20 -64 -35 -80 -35 -38 0 -87 49 -87 87 0 29 28 82 63 121 24 26
30 27 46 9z m-7999 -172 c16 -19 21 -15 -112 -104 -67 -45 -105 -77 -101 -84
3 -7 15 -24 25 -39 20 -29 17 -48 -6 -48 -18 0 -140 186 -131 199 12 20 30 11
53 -24 12 -19 26 -35 30 -35 4 1 54 34 112 75 58 40 108 74 111 74 4 1 12 -6
19 -14z m7849 -59 c9 -10 3 -22 -29 -54 -29 -29 -40 -48 -40 -71 0 -48 37 -52
115 -12 71 36 103 35 135 -6 36 -46 20 -106 -42 -158 -30 -25 -33 -26 -45 -9
-11 15 -8 21 22 48 41 38 51 68 30 90 -23 23 -43 20 -100 -14 -59 -35 -93 -38
-128 -10 -33 27 -41 62 -22 107 15 36 71 103 86 103 3 0 12 -6 18 -14z m-7719
-121 c10 -12 3 -42 -39 -160 l-50 -145 95 76 c89 71 125 86 124 52 -1 -12
-215 -183 -243 -193 -6 -3 -17 3 -24 14 -10 16 -4 43 38 161 l49 142 -67 -53
c-38 -29 -81 -64 -97 -76 -31 -26 -51 -26 -51 0 0 16 220 196 241 197 6 0 17
-7 24 -15z m7654 -208 c58 -48 106 -91 106 -95 0 -4 -25 -38 -56 -76 -51 -60
-58 -66 -72 -52 -13 13 -10 20 29 67 l43 52 -34 30 -34 30 -40 -47 c-23 -25
-46 -46 -53 -46 -27 0 -22 23 16 69 l41 49 -35 31 c-20 17 -40 31 -44 31 -5 0
-28 -23 -52 -51 -37 -44 -44 -49 -57 -36 -13 14 -8 24 43 86 50 60 60 68 75
58 10 -7 65 -51 124 -100z m-7344 -172 c0 -6 -53 -58 -117 -115 l-117 -104
-63 69 c-57 62 -62 71 -48 85 14 13 20 10 63 -38 l47 -52 34 29 35 29 -42 50
c-37 44 -40 51 -26 62 13 11 21 6 57 -34 l42 -48 40 35 39 34 -43 52 c-37 44
-41 54 -30 67 11 14 20 8 71 -48 31 -34 57 -68 58 -73z m7072 -42 c40 -37 86
-79 101 -92 l28 -26 32 39 c29 34 34 36 46 22 15 -18 8 -29 -89 -133 -53 -56
-64 -64 -76 -51 -12 12 -9 19 18 52 l32 39 -103 96 c-83 77 -100 98 -90 109 7
6 17 12 21 12 4 0 40 -30 80 -67z m-6921 -107 c31 -42 38 -99 18 -139 -17 -32
-70 -87 -101 -103 -69 -36 -163 -4 -203 70 -17 32 -18 38 -5 46 22 14 24 13
39 -21 7 -17 28 -40 45 -50 47 -30 92 -19 144 35 35 38 42 51 42 86 0 42 -27
81 -75 107 -16 9 -17 14 -6 27 12 14 16 14 44 -2 16 -9 43 -35 58 -56z m242
-223 l38 -34 -88 -100 c-48 -56 -95 -110 -104 -121 -19 -24 -23 -23 -101 46
-51 44 -56 52 -43 65 13 13 21 9 65 -28 l51 -43 30 33 29 34 -46 41 c-31 28
-43 46 -38 57 9 23 11 22 65 -23 l48 -41 36 38 35 38 -52 47 c-45 40 -50 49
-39 62 14 17 20 13 114 -71z m203 -178 c27 -14 62 -37 78 -51 35 -31 40 -21
-81 -175 -57 -75 -88 -107 -96 -101 -108 80 -137 117 -137 171 0 83 88 179
166 181 11 0 42 -11 70 -25z m1350 -775 c41 0 74 -3 74 -7 0 -5 -25 -25 -55
-46 -30 -21 -55 -44 -55 -51 0 -7 9 -39 20 -71 11 -32 18 -60 16 -63 -3 -2
-31 15 -64 38 l-60 43 -58 -42 c-32 -23 -60 -38 -62 -33 -1 5 6 37 17 72 11
35 19 65 18 65 -1 1 -29 22 -62 46 l-60 44 79 5 79 5 19 55 c10 30 21 62 24
70 4 9 16 -13 31 -57 l25 -73 74 0z m3310 45 l19 -65 77 0 c43 0 78 -4 78 -8
0 -4 -12 -15 -27 -24 -16 -9 -43 -29 -61 -45 l-33 -28 21 -59 c11 -33 20 -65
20 -73 0 -7 -26 6 -61 32 l-61 45 -64 -45 c-35 -26 -64 -42 -64 -37 0 5 9 35
20 67 11 32 20 63 20 69 0 6 -25 29 -55 50 -30 22 -55 43 -55 48 0 4 33 8 74
8 l75 0 22 69 c13 39 26 68 29 66 4 -3 16 -34 26 -70z m-1116 -175 c0 -5 -25
-48 -56 -95 l-56 -86 77 -100 c43 -55 76 -102 74 -103 -2 -2 -24 -6 -49 -10
l-45 -6 -54 75 c-30 41 -58 75 -61 75 -20 0 -27 -28 -22 -89 l4 -68 -37 -7
c-21 -4 -41 -4 -45 1 -6 6 -40 333 -40 381 0 8 15 12 44 12 l44 0 8 -81 9 -81
58 90 c54 84 61 91 95 95 20 2 40 4 45 5 4 1 7 -2 7 -8z m-725 -41 c63 -16 90
-49 90 -111 0 -43 -4 -53 -32 -79 -18 -16 -33 -31 -33 -35 0 -3 13 -24 28 -47
16 -23 39 -59 51 -79 l23 -38 -49 0 -48 0 -43 75 c-30 51 -50 75 -62 75 -17 0
-20 -9 -22 -72 l-3 -73 -42 -3 -43 -3 0 163 c0 90 3 180 6 201 l7 37 64 0 c35
0 84 -5 108 -11z m343 -16 c2 -16 -4 -26 -22 -35 -29 -13 -31 -33 -20 -185 6
-73 9 -82 31 -92 17 -8 23 -18 21 -34 -3 -21 -8 -22 -95 -25 l-93 -3 0 26 c0
18 8 29 26 37 l27 12 -7 90 c-3 49 -6 104 -6 123 0 26 -6 36 -25 45 -16 7 -25
19 -25 34 0 27 21 32 120 30 59 -1 65 -3 68 -23z"/>
<path d="M5724 12859 c3 -17 6 -40 6 -51 0 -17 5 -19 33 -13 46 10 58 24 55
59 -3 30 -5 31 -52 34 l-49 3 7 -32z"/>
<path d="M7558 12804 l-37 -72 41 -6 c22 -4 43 -5 45 -2 2 2 0 37 -4 77 l-9
74 -36 -71z"/>
<path d="M10751 6214 c0 -11 3 -14 6 -6 3 7 2 16 -1 19 -3 4 -6 -2 -5 -13z"/>
<path d="M10674 6190 c2 -16 20 -14 24 2 3 10 2 10 -6 -1 -7 -9 -11 -10 -15
-2 -4 7 -5 8 -3 1z"/>
<path d="M4606 4143 c-4 -5 -13 -8 -18 -8 -6 0 -13 -7 -15 -15 -4 -12 -3 -12
5 -2 5 8 12 13 16 12 12 -3 31 7 25 14 -3 3 -9 3 -13 -1z"/>
<path d="M4551 4114 c0 -11 3 -14 6 -6 3 7 2 16 -1 19 -3 4 -6 -2 -5 -13z"/>
<path d="M10062 11397 l-83 -84 40 -36 c30 -27 50 -37 74 -37 67 0 147 88 133
146 -6 23 -62 94 -75 94 -3 0 -44 -37 -89 -83z"/>
<path d="M11185 9843 c-22 -9 -41 -17 -43 -18 -6 -5 28 -73 43 -85 19 -16 62
-4 78 22 13 20 -8 98 -26 97 -7 0 -30 -7 -52 -16z"/>
<path d="M1891 9577 c2 -1 25 -20 52 -41 l47 -38 15 36 c8 19 15 38 15 41 0 3
-30 5 -67 5 -36 0 -64 -1 -62 -3z"/>
<path d="M11234 9494 c3 -9 9 -27 12 -40 3 -13 8 -24 11 -24 3 0 28 18 55 40
l51 40 -68 0 c-57 0 -66 -2 -61 -16z"/>
<path d="M1785 8865 c-5 -2 -28 -6 -50 -10 l-39 -7 54 -33 c55 -34 55 -34 62
-12 16 55 8 74 -27 62z"/>
<path d="M11510 8210 l-115 -5 -3 -46 c-6 -87 71 -138 162 -107 56 19 78 53
74 114 l-3 49 -115 -5z"/>
<path d="M11380 7557 c0 -93 35 -129 126 -131 51 0 59 3 85 32 23 25 29 42 29
76 l0 44 -47 6 c-27 3 -81 8 -120 12 l-73 6 0 -45z"/>
<path d="M1683 7583 c-12 -2 -34 -18 -48 -34 -20 -25 -25 -41 -25 -86 l0 -55
33 5 c17 3 74 9 124 13 l93 7 -6 41 c-13 91 -71 128 -171 109z"/>
<path d="M1745 7066 c-47 -20 -59 -42 -59 -101 1 -29 4 -57 7 -62 7 -11 215
23 231 37 16 15 -5 82 -34 112 -23 22 -37 28 -72 28 -24 -1 -57 -7 -73 -14z"/>
<path d="M11187 6212 l-15 -37 67 -6 c36 -3 67 -5 67 -5 1 1 -22 20 -51 43
l-53 42 -15 -37z"/>
<path d="M2192 5697 l-42 -43 43 4 c23 1 52 5 64 8 22 4 22 5 6 39 -9 19 -19
35 -23 35 -3 0 -25 -19 -48 -43z"/>
<path d="M10874 5539 c-17 -34 -9 -49 27 -49 9 0 31 -3 50 -7 l33 -6 -39 46
c-22 26 -43 47 -47 47 -4 0 -15 -14 -24 -31z"/>
<path d="M2297 5432 c-21 -23 -21 -42 0 -86 l16 -35 49 27 c26 15 48 30 48 33
0 3 -10 21 -23 40 -27 40 -65 49 -90 21z"/>
<path d="M3613 4107 c-38 -21 -73 -77 -73 -117 0 -40 17 -70 59 -99 l29 -21
71 93 c39 51 71 96 71 100 0 3 -17 18 -37 32 -41 27 -85 32 -120 12z"/>
<path d="M6450 3085 l0 -45 38 0 c43 0 62 14 62 45 0 31 -19 45 -62 45 l-38 0
0 -45z"/>
</g>
</svg>
